<svg xmlns="http://www.w3.org/2000/svg" xmlns:xlink="http://www.w3.org/1999/xlink" width="315" height="266" viewBox="0 0 315 266">
  <defs>
    <clipPath id="clip-path">
      <rect id="Rectángulo_409219" data-name="Rectángulo 409219" width="315" height="266" transform="translate(264.711 3617.467)" fill="#fff" stroke="#707070" stroke-width="1"/>
    </clipPath>
    <clipPath id="clip-path-2">
      <rect id="Rectángulo_409218" data-name="Rectángulo 409218" width="423.471" height="348.93" fill="none"/>
    </clipPath>
    <clipPath id="clip-path-3">
      <rect id="Rectángulo_409217" data-name="Rectángulo 409217" width="314.259" height="314.259" fill="none"/>
    </clipPath>
    <clipPath id="clip-path-4">
      <rect id="Rectángulo_409201" data-name="Rectángulo 409201" width="27.122" height="72.155" fill="none"/>
    </clipPath>
    <clipPath id="clip-path-5">
      <rect id="Rectángulo_409202" data-name="Rectángulo 409202" width="34.663" height="25.4" fill="none"/>
    </clipPath>
    <clipPath id="clip-path-6">
      <rect id="Rectángulo_409203" data-name="Rectángulo 409203" width="19.362" height="13.831" fill="none"/>
    </clipPath>
    <clipPath id="clip-path-7">
      <rect id="Rectángulo_409204" data-name="Rectángulo 409204" width="51.528" height="43.544" fill="none"/>
    </clipPath>
    <clipPath id="clip-path-8">
      <rect id="Rectángulo_409205" data-name="Rectángulo 409205" width="9.878" height="8.044" fill="none"/>
    </clipPath>
    <clipPath id="clip-path-9">
      <rect id="Rectángulo_409206" data-name="Rectángulo 409206" width="16.154" height="17.06" fill="none"/>
    </clipPath>
    <clipPath id="clip-path-10">
      <rect id="Rectángulo_409207" data-name="Rectángulo 409207" width="3.426" height="2.292" fill="none"/>
    </clipPath>
    <clipPath id="clip-path-11">
      <rect id="Rectángulo_409208" data-name="Rectángulo 409208" width="2.574" height="2.292" fill="none"/>
    </clipPath>
    <clipPath id="clip-path-12">
      <rect id="Rectángulo_409209" data-name="Rectángulo 409209" width="24.95" height="27.309" fill="none"/>
    </clipPath>
    <clipPath id="clip-path-13">
      <rect id="Rectángulo_409210" data-name="Rectángulo 409210" width="10.427" height="11.174" fill="none"/>
    </clipPath>
  </defs>
  <g id="Grupo_1119257" data-name="Grupo 1119257" transform="translate(-264.711 -3617.467)">
    <g id="Enmascarar_grupo_1119111" data-name="Enmascarar grupo 1119111" clip-path="url(#clip-path)">
      <path id="Trazado_893294" data-name="Trazado 893294" d="M32.034,0H282.966C300.658,0,315,13.431,315,30V163c0,16.569-14.342,30-32.034,30H32.034C14.342,193,0,179.569,0,163V30C0,13.431,14.342,0,32.034,0Z" transform="translate(265 3653.967)" fill="#fff0c5"/>
      <g id="Grupo_1119513" data-name="Grupo 1119513" transform="translate(221.24 3567.467)">
        <g id="Grupo_1119512" data-name="Grupo 1119512" clip-path="url(#clip-path-2)">
          <g id="Grupo_1119511" data-name="Grupo 1119511" transform="translate(45.571 -0.001)">
            <g id="Grupo_1119510" data-name="Grupo 1119510" clip-path="url(#clip-path-3)">
              <path id="Trazado_925067" data-name="Trazado 925067" d="M433.394,194.708c-5.449-5.854-16.278-5.161-20.937,1.339-.686-6.269-7.8-10.281-14.072-9.572s-11.6,4.862-15.993,9.384a30.873,30.873,0,0,0-48.424,11.029c-12.707-1.685-25.041,11.4-22.614,23.981-5.39.811-10.893,2.262-15.094,5.734S289.5,246,291.316,251.134c-9.144-4.936-22.275,2.213-23.091,12.572-3.608-4.021-10.183-4.16-14.946-1.61s-8.043,7.17-10.746,11.848c-3.292-6.343-14.071-4.318-17.181,2.116s-.563,14.222,3.312,20.227c2.607,4.04,5.92,7.8,10.245,9.9,4.38,2.128,9.4,2.389,14.271,2.535a464.7,464.7,0,0,0,117.08-11.408c20.367-4.644,40.477-10.675,61.189-13.4,14.421-1.9,30.2-2.632,41.178-12.172,10.81-9.393,13.893-24.84,14.55-39.145.809-17.634-1.771-38.01-15.175-50.845-12.334-11.81-37.808-7-38.607,12.958" transform="translate(-128.769 -65.153)" fill="#efbdac"/>
              <path id="Trazado_925068" data-name="Trazado 925068" d="M72.1,260.78c7.026,5.357,10.658,13.937,13.995,22.119,4.025-1.509,8.309-3.043,12.528-2.218s8.085,5.017,6.906,9.151c5.189-.517,10.628-1,15.444,1s8.662,7.371,7.1,12.348a14.576,14.576,0,0,1,23.992,12.761c8.017-3.889,18.89.148,22.425,8.328,5.161-3.653,13.338-1.752,16.36,3.8,5.039-4.019,11.8-4.936,18.2-5.705L238.7,318.8c5.415-9.838,19.685-13.44,29.12-7.352,1.461-9.18,13.553-14.719,21.46-9.831,3.843-10.085,15.4-16.577,26.008-14.617-1.064-14.409,13.724-27.713,27.941-25.136,2.884-11.655,17.934-16.771,29.307-12.923S392,262.8,398.48,272.908a195.651,195.651,0,0,1,20.478,42.49c3.573,10.495,6.271,21.5,5.582,32.57-1.061,17.026-10,32.549-20.169,46.247-5.9,7.948-12.413,15.642-20.661,21.114-11.058,7.336-24.442,10.179-37.56,12.184-62.03,9.482-125.334,3.457-187.53-4.87-28.874-3.866-57.975-8.3-85.086-18.964-12.459-4.9-24.559-11.193-34.428-20.24-18.006-16.506-27-40.606-32.632-64.375-5.77-24.359-4.468-48.34,7.757-70.688,12.327-22.534,30.4-5.283,34.215,13.331,6.122-6.679,16.71-6.218,23.65-.926" transform="translate(-46.749 -88.292)" fill="#f4b99f"/>
              <path id="Trazado_925069" data-name="Trazado 925069" d="M535.14,308.027a31.864,31.864,0,0,0-21.4,15.133,10.081,10.081,0,0,0-17.911,8.785,10.879,10.879,0,0,0-16.341,12.03,7.088,7.088,0,0,0-11.993,6.051,8.794,8.794,0,0,0-14.04,8.672c-4.818-2.349-10.855-1.52-15.264,1.528a21.01,21.01,0,0,0-8.259,13.332c-.725,3.747-.473,7.981,2.014,10.876a15.2,15.2,0,0,0,5.168,3.523c8.35,3.978,17.4,6.269,26.492,7.988,21.4,4.048,44.149,4.921,64.394-3.119s37.371-26.54,38.786-48.277c.753-11.575-3.8-17.341-9.834-26.175-2.026-2.968-2.08-6.594-4.982-8.789-3.912-2.958-12.362-2.4-16.83-1.56" transform="translate(-205.151 -114.177)" fill="#f28761"/>
              <path id="Trazado_925070" data-name="Trazado 925070" d="M541.943,333.19c-2,.4-4.112.783-6.028.092s-3.44-2.892-2.647-4.768a6.372,6.372,0,0,1-5.1-8.286c-2.54,1.3-5.829-.981-6.291-3.8s1.2-5.61,3.379-7.448a5.822,5.822,0,0,1,11.26-2.269,3.887,3.887,0,0,1,1.44-3.461,6.616,6.616,0,0,1,3.83-1.275,4.943,4.943,0,0,1,2.528.409,6.336,6.336,0,0,1,2.456,3.139c-.165-1.421-.268-3.044.708-4.09a4.091,4.091,0,0,1,1.409-.9c1.916-.823,4.863.026,6.3,1.522,3.21-1.114,6.811,1.1,8.427,4.087s1.74,6.531,1.826,9.928c.107,4.221-.126,9.154-3.569,11.6-.976.693-2.131,1.106-3.089,1.821-1.766,1.318-2.926,3.667-5.1,4.038-2.142.366-4.439-1.428-6.383-.458-1.366.681-1.811,2.42-1.809,3.947a14.387,14.387,0,0,0,2.606,7.619c-6.635,5.525-5.021-8.125-6.16-11.448" transform="translate(-239.411 -111.525)" fill="#fcdfcd"/>
              <path id="Trazado_925071" data-name="Trazado 925071" d="M424.647,359a3.023,3.023,0,0,1,.842-1.281,4.484,4.484,0,0,1,2.292-.552c3.527-.421,6.274-4.687,4.565-7.8,5.153-.076,9.5-5.551,8.41-10.588a26.25,26.25,0,0,0,13.067-2.372,11.647,11.647,0,0,0,5.434-4.473c1.173-2.076,1.161-4.962-.545-6.628,2.021.118,3.671-1.855,3.947-3.86s-.451-4-1.165-5.892a14.192,14.192,0,0,0-2.878-5.236c-1.422-1.417-3.72-2.165-5.486-1.21,1.938-1.936,1.468-5.23.238-7.678a16.555,16.555,0,0,0-27.65-3c.814-1.9-.24-4.215-1.942-5.39a10.141,10.141,0,0,0-5.941-1.408c-2.835.036-5.8.608-7.976,2.431s-3.246,5.158-1.827,7.613a9,9,0,0,0-13.908,9.707c-2.321-1.965-6.214-.539-7.695,2.117s-1.153,5.944-.412,8.894c.717,2.851,2.609,6.173,5.532,5.853-2.938-.006-5.432,2.75-5.646,5.68a8.7,8.7,0,0,0,3.916,7.459,15.667,15.667,0,0,0,8.335,2.471c.777.035,1.781-.132,1.942-.894a5.872,5.872,0,0,0,10.66,3.994c-.629,1.779.538,3.82,2.209,4.7a8.543,8.543,0,0,0,5.534.467c-1.92,1.8-.211,5.727,2.413,5.55q.341,4.681.682,9.362a9.3,9.3,0,0,1-.114,3.046c-1.065,4.038-7.024,5.459-7.611,9.594a2.963,2.963,0,0,0,.524,2.275,3.971,3.971,0,0,0,2.1,1.148c3.419.948,16.683.945,13.3-5.131-1.3-2.339-3.869-3.743-5.063-6.278A16.331,16.331,0,0,1,424.647,359" transform="translate(-188.736 -108.335)" fill="#fcdfcd"/>
              <path id="Trazado_925072" data-name="Trazado 925072" d="M500.644,387.027H487.759V370.243H473.49v21h-8.8l-3.748-3.748h-3.957V377.26H434.418v18.567H423.136v10.108H348.8l5.436,26.682,51.7,10.532,101.194-6.772-4.757-48.957" transform="translate(-175.144 -137.538)" fill="#f2aa8b"/>
              <path id="Trazado_925073" data-name="Trazado 925073" d="M325.793,256.911c-.074,1.833-.142,3.3-.169,4.269-.2,6.44-3.884,8.274-5.926,10.317s-12.766,3.2-15.574,3.647c-2.6.406-5.1-62.715-5.453-72.153-.034-.764-.047-1.177-.047-1.177,6.975-2.023,15.763-3.376,18.212-1.678s6.948,7.009,8.789,16.609c1.562,8.159.615,29.869.169,40.166" transform="translate(-156.504 -74.06)" fill="#eb4343"/>
              <path id="Trazado_925074" data-name="Trazado 925074" d="M313.106,200.589c4.018,1.087,7.885,2.516,9.112,8.237s2.247,50.879,2.655,55.676a15.487,15.487,0,0,1-1.881,8.555" transform="translate(-161.884 -74.514)" fill="none" stroke="#ef7352" stroke-miterlimit="10" stroke-width="1"/>
              <g id="Grupo_1119482" data-name="Grupo 1119482" transform="translate(142.166 128.931)" opacity="0.51" style="mix-blend-mode: multiply;isolation: isolate">
                <g id="Grupo_1119481" data-name="Grupo 1119481">
                  <g id="Grupo_1119480" data-name="Grupo 1119480" clip-path="url(#clip-path-4)">
                    <path id="Trazado_925075" data-name="Trazado 925075" d="M325.82,259.054c-.074,1.833-.142,3.3-.169,4.269-.2,6.44-3.884,8.274-5.926,10.317s-12.766,3.2-15.574,3.647c-2.6.406-5.1-62.715-5.453-72.153a17.212,17.212,0,0,1,3.83.737c8.389,2.693,6.522,32.041,7.841,47.324,1.2,14.052,7.862,12.279,15.452,5.859" transform="translate(-298.698 -205.134)" fill="#ce1b92"/>
                  </g>
                </g>
              </g>
              <path id="Trazado_925076" data-name="Trazado 925076" d="M288.245,114.913c1.15,2.984,1.38,5.169-2.293,7.239s-9.884,1.183-9.884,1.183l-16.325-14.978c-4.35-3.728-4.945-7.313-4.222-10.189a13.165,13.165,0,0,1,4.175-6.325s2.144-5.663,10.175-4.743,9.688,2.754,11.968,5.629,4.229,1.61,6.637,5.054a8.829,8.829,0,0,1,.805,1.4c1.319,2.889.385,5.574-.805,8.944-1.373,3.91-1.373,3.795-.23,6.785" transform="translate(-140.396 -32.318)" fill="#301011"/>
              <g id="Grupo_1119485" data-name="Grupo 1119485" transform="translate(114.864 65.805)" opacity="0.29">
                <g id="Grupo_1119484" data-name="Grupo 1119484">
                  <g id="Grupo_1119483" data-name="Grupo 1119483" clip-path="url(#clip-path-5)">
                    <path id="Trazado_925077" data-name="Trazado 925077" d="M288.245,121.487c1.15,2.984,1.38,5.169-2.293,7.239s-9.884,1.183-9.884,1.183l-16.325-14.978c-4.35-3.728-4.945-7.313-4.222-10.189.724-.189,1.658.176,2.842,1.569,4.114,4.838,15.919,2.767,19.045,3.972s10.392,6.379,11.873-4.526c1.319,2.889.385,5.574-.805,8.944-1.373,3.91-1.373,3.795-.23,6.785" transform="translate(-255.26 -104.697)" fill="#190708"/>
                  </g>
                </g>
              </g>
              <path id="Trazado_925078" data-name="Trazado 925078" d="M234.637,305.451c-.354,4.276,3.361,35.007,11.971,47.5s18.067,26.509,18.067,26.509,17.729-2.533,19.079-4.728,0-7.767,0-7.767l-2.87-3.377s.169-4.052-.506-4.052a2.481,2.481,0,0,1-2.364-1.182c-.845-1.182-10.469-37.822-11.819-42.043s-7.092-18.573-9.455-18.235-22.1,7.374-22.1,7.374" transform="translate(-132.726 -110.727)" fill="#ad3f3a"/>
              <path id="Trazado_925079" data-name="Trazado 925079" d="M273.471,302.277c.539,13.008-3.133,26.765-9.063,35.673s-22.984,29.339-23.491,29.508-26.172-16.715-26.172-16.715l29.506-47.386Z" transform="translate(-125.345 -112.29)" fill="#c15348"/>
              <path id="Trazado_925080" data-name="Trazado 925080" d="M282.638,125.691a53.193,53.193,0,0,0-.562,5.958l-5.713-1.192-.576-3.233,4.05-1.532Z" transform="translate(-148.021 -46.691)" fill="#f7bfc5"/>
              <path id="Trazado_925081" data-name="Trazado 925081" d="M262.443,101.934c-1.869,7.035-2.493,12.495,4.737,14.672s10.91-2.577,11.757-5.345.942-12.1-.122-12.864-8.164-3.69-8.164-3.69Z" transform="translate(-142.607 -35.181)" fill="#f7bfc5"/>
              <path id="Trazado_925082" data-name="Trazado 925082" d="M282.835,105.991c1,2.009-.162,5.313.75,6.192s4.1-2.809,3.691-4.253-4.441-1.938-4.441-1.938" transform="translate(-150.639 -39.373)" fill="#301011"/>
              <path id="Trazado_925083" data-name="Trazado 925083" d="M262.343,97.69c-.387,3.263,3.837.23,6.126,2.183s4.013,2.529,6.082,1.494,1.38.46,4.253,2.414,5.4,2.3,5.632-1.035a9.4,9.4,0,0,0-4.253-8.5c-2.988-2.068-16.829-5.056-17.839,3.448" transform="translate(-143.018 -34.175)" fill="#301011"/>
              <path id="Trazado_925084" data-name="Trazado 925084" d="M264.709,127.86c.961-1.7,13.634-1.87,16.912,1.1s1.912,6.007,1.912,6.007l-18.823-5.308Z" transform="translate(-143.906 -47.045)" fill="#f9988f"/>
              <path id="Trazado_925085" data-name="Trazado 925085" d="M260.2,130.893c-4.945,11.843-6.083,30.558-4.459,35.294s15.957,8.762,17.181,9.2,5.113-1.8,5.113-1.8l1.912-37.38-17.2-6.242Z" transform="translate(-140.316 -48.277)" fill="#f9988f"/>
              <g id="Grupo_1119488" data-name="Grupo 1119488" transform="translate(120.265 107.174)" opacity="0.08" style="mix-blend-mode: multiply;isolation: isolate">
                <g id="Grupo_1119487" data-name="Grupo 1119487">
                  <g id="Grupo_1119486" data-name="Grupo 1119486" clip-path="url(#clip-path-6)">
                    <path id="Trazado_925086" data-name="Trazado 925086" d="M278.516,170.517c-3.846,5.692-14.715,2.368-14.665,3.929s0,9.692,0,9.692,12.613.471,13.856,0,5.506-1.813,5.506-1.813Z" transform="translate(-263.852 -170.517)" fill="#ce1b92"/>
                  </g>
                </g>
              </g>
              <path id="Trazado_925087" data-name="Trazado 925087" d="M282.185,136.315a47.361,47.361,0,0,0-10.08-2.941" transform="translate(-146.653 -49.545)" fill="none" stroke="#ffa9a8" stroke-linecap="round" stroke-miterlimit="10" stroke-width="1"/>
              <path id="Trazado_925088" data-name="Trazado 925088" d="M292.238,139.89c5.927,1.908,9.406,19.436,8.707,26.729a32.232,32.232,0,0,1-3.826,12.453l-6.792-1.8s-1.617-17.027-2.142-21.642,4.053-15.737,4.053-15.737" transform="translate(-152.611 -51.966)" fill="#f9988f"/>
              <path id="Trazado_925089" data-name="Trazado 925089" d="M278.939,263.155c-.7,1.407-37.67,2.639-41.715,4.046a12.971,12.971,0,0,1-6.867.7s-3.166-2.463-2.639-5.452a21.567,21.567,0,0,1,2.632-6.333l.007-.006s-4.046-14.783-4.222-28.334,4.431-25.877,13.22-28.868,19.044,3.166,19.044,3.166l16.379,30.741,1.346,2.523,1.218,19.843c1.42,4.1,2.3,6.562,1.6,7.97" transform="translate(-129.575 -73.586)" fill="#663f84"/>
              <g id="Grupo_1119491" data-name="Grupo 1119491" transform="translate(98.084 150.953)" opacity="0.29" style="mix-blend-mode: multiply;isolation: isolate">
                <g id="Grupo_1119490" data-name="Grupo 1119490">
                  <g id="Grupo_1119489" data-name="Grupo 1119489" clip-path="url(#clip-path-7)">
                    <path id="Trazado_925090" data-name="Trazado 925090" d="M279.842,278.788c-.7,1.407-37.67,2.639-41.715,4.046a12.971,12.971,0,0,1-6.867.7s-3.166-2.463-2.639-5.452a21.568,21.568,0,0,1,2.632-6.333l.007-.006s34.442-16.311,37.013-31.574l7.408,8.281,1.346,2.523,1.218,19.843c1.42,4.1,2.3,6.562,1.6,7.97" transform="translate(-228.562 -240.171)" fill="#7a308c"/>
                  </g>
                </g>
              </g>
              <path id="Trazado_925091" data-name="Trazado 925091" d="M272.69,278.046a3.281,3.281,0,0,1-1.163.67,30.868,30.868,0,0,1-8.268,1c-6.447.169-13.795-.42-13.869-1-.108-.893,1.569-1.231,1.569-1.231s-3.133.115-3.241-1.008,2.009-1.448,2.009-1.448-3.579-.446-3.735-1.793c-.149-1.272,2.936-.9,3.261-.859-.257-.061-2.2-.568-1.989-1.82.223-1.346,7.828-1.569,7.828-1.569l-1.448-1.238c-1.441-1.238.109-2.672.886-1.779s3.356,1.008,4.587,1.231,2.571,3.133,3.464,4.472c.439.656,1.359.778,2.5.677,1.184-.1,2.612-.447,3.978-.677,0,0,3.518,2.5,4.073,4.641a1.633,1.633,0,0,1-.446,1.732" transform="translate(-136.952 -98.699)" fill="#f7bfc5"/>
              <g id="Grupo_1119494" data-name="Grupo 1119494" transform="translate(126.308 172.974)" opacity="0.24" style="mix-blend-mode: multiply;isolation: isolate">
                <g id="Grupo_1119493" data-name="Grupo 1119493">
                  <g id="Grupo_1119492" data-name="Grupo 1119492" clip-path="url(#clip-path-8)">
                    <path id="Trazado_925092" data-name="Trazado 925092" d="M283.345,279.849l-.446,1.732a3.275,3.275,0,0,1-1.164.669,30.863,30.863,0,0,1-8.267,1c.764-1.305,2.415-4.715,1.826-7.368,1.184-.1,2.612-.446,3.978-.676,0,0,3.518,2.5,4.073,4.641" transform="translate(-273.467 -275.208)" fill="#ce1b92"/>
                  </g>
                </g>
              </g>
              <path id="Trazado_925093" data-name="Trazado 925093" d="M265.624,192.189c1.957,3.352,16.093,3.906,20.389,9.034s10.968,21.311,13.022,30.042,1.437,16.849,0,18.565-14.209,4-14.209,4-1,1.906-1.837,2.288-7.695-.572-9.029-1.906-2.377-9.531-1.665-10.865,8.718-4.956,8.718-4.956-.191-2.1.381-2.859a2.869,2.869,0,0,1,1.6-.953s-6.17-18.872-6.551-20.778-16.159-11.056-18.468-12.391,7.654-9.222,7.654-9.222" transform="translate(-141.274 -71.394)" fill="#663f84"/>
              <path id="Trazado_925094" data-name="Trazado 925094" d="M260.321,170.643l.984,13.543s-2.6,12.667-8.929,12.486-6.848-6.658-6.135-14.368,14.079-11.661,14.079-11.661" transform="translate(-136.955 -63.39)" fill="#f7bfc5"/>
              <g id="Grupo_1119497" data-name="Grupo 1119497" transform="translate(107.603 107.253)" opacity="0.24" style="mix-blend-mode: multiply;isolation: isolate">
                <g id="Grupo_1119496" data-name="Grupo 1119496">
                  <g id="Grupo_1119495" data-name="Grupo 1119495" clip-path="url(#clip-path-9)">
                    <path id="Trazado_925095" data-name="Trazado 925095" d="M259.861,176.016c-3.156,8.716-11.476,13.218-14.47,11.217s-1.083-5.373-1.083-5.373l4.593-4.966,10.57-6.252Z" transform="translate(-243.707 -170.643)" fill="#ce1b92"/>
                  </g>
                </g>
              </g>
              <path id="Trazado_925096" data-name="Trazado 925096" d="M273.92,149.014c1.53,5.174-.958,9.85-4.294,14.845s-6.385-18.211-6.385-18.211l8.735-.339Z" transform="translate(-143.361 -53.979)" fill="#301011"/>
              <path id="Trazado_925097" data-name="Trazado 925097" d="M231.992,142.757c-.362,8.5-.61,19.935,10.475,20.023s13.793-7.1,15.653-16.018a11.71,11.71,0,0,0-7.374-13.988c-13.631-4.41-18.442,3.408-18.363,9.4Z" transform="translate(-131.708 -48.843)" fill="#f7bfc5"/>
              <path id="Trazado_925098" data-name="Trazado 925098" d="M269.059,159.283c1.265-3.251,4.391-5.187,5.614-2.379s-2.782,11.249-5.886,8.132Z" transform="translate(-145.421 -57.783)" fill="#f7bfc5"/>
              <path id="Trazado_925099" data-name="Trazado 925099" d="M270.353,161.511c.767-2.933,2.511-3.415,3.162-2.663" transform="translate(-146.002 -58.891)" fill="none" stroke="#ed98a5" stroke-linecap="round" stroke-miterlimit="10" stroke-width="1"/>
              <path id="Trazado_925100" data-name="Trazado 925100" d="M272.551,158.564a3.021,3.021,0,0,1,.192,4.95c-1.943,1.366-1.591-.821-1.591-.821" transform="translate(-146.29 -58.903)" fill="none" stroke="#ed98a5" stroke-linecap="round" stroke-miterlimit="10" stroke-width="1"/>
              <path id="Trazado_925101" data-name="Trazado 925101" d="M245.072,156.3c.033.845.429,1.517.885,1.5s.8-.717.766-1.562-.429-1.517-.885-1.5-.8.718-.766,1.563" transform="translate(-136.61 -57.482)" fill="#301011"/>
              <path id="Trazado_925102" data-name="Trazado 925102" d="M236.172,156.655c.033.845.307,1.521.612,1.509s.527-.706.493-1.552-.307-1.522-.612-1.51-.526.707-.493,1.552" transform="translate(-133.304 -57.617)" fill="#301011"/>
              <path id="Trazado_925103" data-name="Trazado 925103" d="M239.7,161.147c-.642.748-.937,2.466.092,2.373" transform="translate(-134.4 -59.862)" fill="none" stroke="#ed98a5" stroke-linecap="round" stroke-miterlimit="10" stroke-width="1"/>
              <path id="Trazado_925104" data-name="Trazado 925104" d="M244.663,169.729a3.75,3.75,0,0,1,3.733.371" transform="translate(-136.459 -62.927)" fill="none" stroke="#ed98a5" stroke-linecap="round" stroke-miterlimit="10" stroke-width="1"/>
              <path id="Trazado_925105" data-name="Trazado 925105" d="M261.764,147.936c.106,2.714,1.781,7.993,3.234,7.676s2.662-3.812,4.226-3.9,2.493-.824,2.4-1.424-.2-5.166-.2-5.166l-4.29-.31Z" transform="translate(-142.812 -53.795)" fill="#301011"/>
              <path id="Trazado_925106" data-name="Trazado 925106" d="M234.633,172.673c-.328,4.311.095,5.554,2.155,7.436a9.1,9.1,0,0,0,6.445,2.715c2.167-.084,4.826-.522,6.6-2.263a13.433,13.433,0,0,0,3.532-4.821c.813-1.948,1.76-3.864,1.76-3.864S247.9,177.138,243,176.812a13.824,13.824,0,0,1-8.366-4.139" transform="translate(-132.696 -63.848)" fill="#301011"/>
              <path id="Trazado_925107" data-name="Trazado 925107" d="M247.167,150.4c.042,1.1.9,2.214,1.591,1.574s-1.628-2.493-1.591-1.574" transform="translate(-137.389 -55.778)" fill="#301011"/>
              <path id="Trazado_925108" data-name="Trazado 925108" d="M236.343,148.681c.043,1.1-.722,2.278-1.464,1.693s1.429-2.611,1.464-1.693" transform="translate(-132.767 -55.144)" fill="#301011"/>
              <path id="Trazado_925109" data-name="Trazado 925109" d="M238.464,212.4s-.487,4.242-1.847,4.945a13.1,13.1,0,0,1-2.693.663,49.941,49.941,0,0,1-5.764.663c-1.935.1-3.565.021-4.045-.4-1.306-1.136-.657-.974-.494-2.6a15.57,15.57,0,0,0-.48-5.71c-.555-1.691-3.106-7.34-3.762-12.726s.981-10.107,3.268-12.232,9.546-5.007,13.538.981c2.943,4.4.432,22.833.432,22.833Z" transform="translate(-127.013 -67.763)" fill="#f78d69"/>
              <path id="Trazado_925110" data-name="Trazado 925110" d="M206.533,198.693c3.666-2.982,6.158-6.383,5.116-8.788s-1.691-4.438-.7-6.96,2.211-4.6,4.174-4.32,8.218.684,9.213,1.323-1.2,1.331-1.2,1.331,2.2-.153,2.094.927-2.415,1.3-2.415,1.3,2.112-.079,2.532.8-2.634.915-2.634.915,2.674.133,1.772,1.131-3.407,1.265-3.407,1.265a6.616,6.616,0,0,1-1.1,6.59c-2.61,3.151-7.122,12.027-7.122,12.027Z" transform="translate(-122.295 -66.346)" fill="#f7bfc5"/>
              <path id="Trazado_925111" data-name="Trazado 925111" d="M243.242,224.424a39.106,39.106,0,0,0-6.171,1.4" transform="translate(-133.639 -83.369)" fill="none" stroke="#f97a53" stroke-miterlimit="10" stroke-width="1"/>
              <path id="Trazado_925112" data-name="Trazado 925112" d="M209.45,235.508c-2.146,4.548-7.266,9.066-12.236,10.271s-10.542,1.117-12.349-.722-5.271-8.916-4.066-12.983,13.1-17.319,13.1-18.825.24-5.422,1.1-6.476c0,0,6.219-2.585,7.937-2.109,4.421,1.226,10.738,4.368,11.543,6.777S209.2,225.33,209.2,225.33Z" transform="translate(-112.642 -76.007)" fill="#663f84"/>
              <path id="Trazado_925113" data-name="Trazado 925113" d="M236.1,245.735c-.994,2.611-3.051,1.9-6.183,4.283s-7.422-.521-5.872-3.058c1.366-2.239,5.107-4.113,5.784-7.246a50.092,50.092,0,0,0,5.764-.663c.338,2.476,1.332,4.5.507,6.684" transform="translate(-128.676 -88.802)" fill="#c15348"/>
              <path id="Trazado_925114" data-name="Trazado 925114" d="M291.2,341.753c-.2,1.82-6.264,6.677-10.513,8.5s-27.292,3.031-29.112,1.617-5.71-27.86-4.046-36.8l26.534-4.979,3.39-.636c5.053,4.3,13.95,30.484,13.747,32.3" transform="translate(-137.375 -114.954)" fill="#ffead9"/>
              <path id="Trazado_925115" data-name="Trazado 925115" d="M247.773,315.022c6.875,2.224,24.918-2.426,26.106-2.628s3.818-2.334,3.818-2.987-23.454,3.028-25.88,3.108-4.044,2.507-4.044,2.507" transform="translate(-137.614 -114.91)" fill="#f9dac2"/>
              <path id="Trazado_925116" data-name="Trazado 925116" d="M306.871,341.753c-.2,1.82-6.264,6.677-10.513,8.5a11.7,11.7,0,0,0-1.2-3.64s-6.075-20.668-5.852-34.172a5.788,5.788,0,0,1,.426-2.354l3.39-.636c5.053,4.3,13.95,30.484,13.747,32.3" transform="translate(-153.042 -114.954)" fill="#f9dac2"/>
              <path id="Trazado_925117" data-name="Trazado 925117" d="M274.184,276.237c2.6-.137,6.064,18.956,6.245,24.922" transform="translate(-147.426 -102.616)" fill="none" stroke="#fcf1f0" stroke-miterlimit="10" stroke-width="1"/>
              <path id="Trazado_925118" data-name="Trazado 925118" d="M257.224,288.055c-2.624,7.306-1.3,19.989-1.11,21.5" transform="translate(-140.526 -107.006)" fill="none" stroke="#fcf1f0" stroke-miterlimit="10" stroke-width="1"/>
              <path id="Trazado_925119" data-name="Trazado 925119" d="M203.261,255.248c5.887-3.442,14.372-17.67,14.372-17.67" transform="translate(-121.079 -88.255)" fill="none" stroke="#714c91" stroke-miterlimit="10" stroke-width="1"/>
              <path id="Trazado_925120" data-name="Trazado 925120" d="M271.552,235.94c.019,3.212-1.6,5.592-.613,8.21s3.05,1.9,6.184,4.283,7.417-.519,5.87-3.056-6.149-4.613-5.87-8.572-5.571-.865-5.571-.865" transform="translate(-146.101 -87.219)" fill="#c15348"/>
              <path id="Trazado_925121" data-name="Trazado 925121" d="M266.989,185.987c4-5.985,11.257-3.1,13.541-.979s3.914,6.85,3.262,12.232-3.2,11.028-3.759,12.725a15.483,15.483,0,0,0-.481,5.7c.163,1.631.815,1.468-.49,2.61s-11.146-.226-12.5-.928-1.848-4.943-1.848-4.943l1.848-3.588s-2.508-18.43.431-22.833" transform="translate(-143.906 -67.764)" fill="#f78d69"/>
              <path id="Trazado_925122" data-name="Trazado 925122" d="M267.65,224.424a39.1,39.1,0,0,1,6.171,1.4" transform="translate(-144.998 -83.369)" fill="none" stroke="#f97a53" stroke-miterlimit="10" stroke-width="1"/>
              <path id="Trazado_925123" data-name="Trazado 925123" d="M294.637,200.313c2.581-.992,5.307-.428,6.153,1.922s1.786,4.726,0,4.806-1.6-1.987-1.6-1.987.7,2.924-.564,2.914-1.64-3.384-1.64-3.384.342,3.435-1.18,2.938-1.171-7.209-1.171-7.209" transform="translate(-155.011 -74.238)" fill="#f7bfc5"/>
              <path id="Trazado_925124" data-name="Trazado 925124" d="M288.394,229.586c3,9.538,6.026,18.885,6.026,18.885l4.278,3.807" transform="translate(-152.704 -85.286)" fill="none" stroke="#714c91" stroke-miterlimit="10" stroke-width="1"/>
              <path id="Trazado_925125" data-name="Trazado 925125" d="M296.8,259.634a3.5,3.5,0,0,0-1.976,3.813l2.382,4.911" transform="translate(-155.08 -96.449)" fill="none" stroke="#714c91" stroke-miterlimit="10" stroke-width="1"/>
              <line id="Línea_3387" data-name="Línea 3387" y1="3.498" transform="translate(143.552 178.94)" fill="none" stroke="#714c91" stroke-miterlimit="10" stroke-width="1"/>
              <path id="Trazado_925126" data-name="Trazado 925126" d="M289.685,265.7s-8.5,3.694-8.718,4.956" transform="translate(-149.945 -98.702)" fill="none" stroke="#714c91" stroke-miterlimit="10" stroke-width="1"/>
              <path id="Trazado_925127" data-name="Trazado 925127" d="M290.589,145.308c-4.322,1.392-3.677,18.167-2.644,20.924" transform="translate(-152.255 -53.979)" fill="none" stroke="#ffa9a8" stroke-linecap="round" stroke-miterlimit="10" stroke-width="1"/>
              <path id="Trazado_925128" data-name="Trazado 925128" d="M286.041,114.9c.885-2.273,3.071-3.628,3.926-1.664s-1.946,7.867-4.117,5.687Z" transform="translate(-151.76 -41.712)" fill="#f7bfc5"/>
              <path id="Trazado_925129" data-name="Trazado 925129" d="M286.946,116.456c.537-2.051,1.756-2.388,2.211-1.862" transform="translate(-152.166 -42.487)" fill="none" stroke="#ed98a5" stroke-linecap="round" stroke-miterlimit="10" stroke-width="0.5"/>
              <path id="Trazado_925130" data-name="Trazado 925130" d="M288.483,114.395a2.113,2.113,0,0,1,.135,3.462c-1.36.955-1.113-.574-1.113-.574" transform="translate(-152.368 -42.495)" fill="none" stroke="#ed98a5" stroke-linecap="round" stroke-miterlimit="10" stroke-width="0.5"/>
              <path id="Trazado_925131" data-name="Trazado 925131" d="M273.9,113c.03.571.349,1.028.713,1.019s.634-.48.6-1.052-.349-1.028-.713-1.018-.634.48-.6,1.051" transform="translate(-147.32 -41.586)" fill="#301011"/>
              <path id="Trazado_925132" data-name="Trazado 925132" d="M265.977,113.173c.033.571.325,1.027.653,1.018s.566-.48.534-1.052-.325-1.027-.653-1.018-.566.48-.534,1.052" transform="translate(-144.376 -41.651)" fill="#301011"/>
              <path id="Trazado_925133" data-name="Trazado 925133" d="M272.1,121.231a4.054,4.054,0,0,1,2.965.206" transform="translate(-146.653 -44.966)" fill="none" stroke="#ed98a5" stroke-linecap="round" stroke-miterlimit="10" stroke-width="0.5"/>
              <path id="Trazado_925134" data-name="Trazado 925134" d="M275.34,108.963c.034.612.713,1.229,1.264.874s-1.292-1.384-1.264-.874" transform="translate(-147.855 -40.425)" fill="#301011"/>
              <path id="Trazado_925135" data-name="Trazado 925135" d="M267.185,108.923c.034.612-.574,1.265-1.163.94s1.134-1.45,1.163-.94" transform="translate(-144.348 -40.414)" fill="#301011"/>
              <g id="Grupo_1119500" data-name="Grupo 1119500" transform="translate(129.478 73.788)" opacity="0.24" style="mix-blend-mode: multiply;isolation: isolate">
                <g id="Grupo_1119499" data-name="Grupo 1119499">
                  <g id="Grupo_1119498" data-name="Grupo 1119498" clip-path="url(#clip-path-10)">
                    <path id="Trazado_925136" data-name="Trazado 925136" d="M281.937,118.545c0,.633-.767,1.146-1.713,1.146s-1.713-.513-1.713-1.146.767-1.146,1.713-1.146,1.713.513,1.713,1.146" transform="translate(-278.511 -117.399)" fill="#ce1b92"/>
                  </g>
                </g>
              </g>
              <g id="Grupo_1119503" data-name="Grupo 1119503" transform="translate(120.265 73.788)" opacity="0.24" style="mix-blend-mode: multiply;isolation: isolate">
                <g id="Grupo_1119502" data-name="Grupo 1119502">
                  <g id="Grupo_1119501" data-name="Grupo 1119501" clip-path="url(#clip-path-11)">
                    <path id="Trazado_925137" data-name="Trazado 925137" d="M266.426,118.545a1.3,1.3,0,1,1-1.287-1.146,1.223,1.223,0,0,1,1.287,1.146" transform="translate(-263.852 -117.399)" fill="#ce1b92"/>
                  </g>
                </g>
              </g>
              <path id="Trazado_925138" data-name="Trazado 925138" d="M270.548,117.21c-.8-.835-1.414.144-1.2.905s1.713.241,1.713.241" transform="translate(-145.614 -43.422)" fill="none" stroke="#ed98a5" stroke-linecap="round" stroke-miterlimit="10" stroke-width="0.5"/>
              <path id="Trazado_925139" data-name="Trazado 925139" d="M269.6,312.007v.169c-1.569.325-3.383.677-5.277.988-4.634.778-9.816,1.353-13.436.872a7.784,7.784,0,0,1-.054-2.26,4.542,4.542,0,0,1,1.008-2.456c1.556-1.766,6.4-3.525,9.973-3.776,2.057-.148,3.924,1.488,5.371,3.214.115.136.23.278.338.42.914,1.136,1.631,2.239,2.077,2.828" transform="translate(-138.728 -113.5)" fill="#ce1b92"/>
              <path id="Trazado_925140" data-name="Trazado 925140" d="M283.955,308.577l-.859,2.855a.6.6,0,0,1-.095.027c-.378.068-2.49.582-5.4,1.191-1.57.325-3.383.676-5.277.987a12.376,12.376,0,0,1,2.368-3.87c.162-.182.332-.365.494-.534a9.13,9.13,0,0,1,3.342-2.341c1.827-.521,5.426,1.684,5.426,1.684" transform="translate(-146.735 -113.975)" fill="#f78d69"/>
              <line id="Línea_3388" data-name="Línea 3388" x1="1.804" transform="translate(99.25 114.773)" fill="none" stroke="#ed98a5" stroke-linecap="round" stroke-miterlimit="10" stroke-width="1"/>
              <line id="Línea_3389" data-name="Línea 3389" x1="1.804" transform="translate(99.25 117.176)" fill="none" stroke="#ed98a5" stroke-linecap="round" stroke-miterlimit="10" stroke-width="1"/>
              <line id="Línea_3390" data-name="Línea 3390" x1="2.175" transform="translate(98.879 118.952)" fill="none" stroke="#ed98a5" stroke-linecap="round" stroke-miterlimit="10" stroke-width="1"/>
              <line id="Línea_3391" data-name="Línea 3391" x2="2.322" transform="translate(112.092 173.62)" fill="none" stroke="#ed98a5" stroke-linecap="round" stroke-miterlimit="10" stroke-width="1"/>
              <line id="Línea_3392" data-name="Línea 3392" x2="2.309" transform="translate(112.777 176.329)" fill="none" stroke="#ed98a5" stroke-linecap="round" stroke-miterlimit="10" stroke-width="1"/>
              <line id="Línea_3393" data-name="Línea 3393" x2="1.883" transform="translate(114.008 178.785)" fill="none" stroke="#ed98a5" stroke-linecap="round" stroke-miterlimit="10" stroke-width="1"/>
              <line id="Línea_3394" data-name="Línea 3394" x2="1.878" y2="1.21" transform="translate(118.142 170.288)" fill="none" stroke="#ed98a5" stroke-linecap="round" stroke-miterlimit="10" stroke-width="1"/>
              <path id="Trazado_925141" data-name="Trazado 925141" d="M398.225,420.982c.686,6.774-16.477,22.466-16.477,22.466l-14.712-3.677,12.01-18.789Z" transform="translate(-181.918 -156.386)" fill="#663f84"/>
              <path id="Trazado_925142" data-name="Trazado 925142" d="M366.91,419.115c-1.471,8.613,5.149,26.023,5.149,26.023s23.294,5.884,24.029,5.639S410.8,439.008,410.8,439.008l-30.895-29.981Z" transform="translate(-181.792 -151.945)" fill="#4a2a66"/>
              <path id="Trazado_925143" data-name="Trazado 925143" d="M417.746,367.527c-1.9,8.426-3.16,12.689-7.584,13.161-3.019.331-8.526-4.343-11.716-7.342-1.485-1.4-2.468-2.438-2.468-2.438L381.8,345.428c9.259-7.995,23.3-4.765,28.358-.07a26.79,26.79,0,0,1,7.1,11.786,20.789,20.789,0,0,1,.481,10.383" transform="translate(-187.405 -126.512)" fill="#f9988f"/>
              <g id="Grupo_1119506" data-name="Grupo 1119506" transform="translate(205.84 226.883)" opacity="0.16" style="mix-blend-mode: multiply;isolation: isolate">
                <g id="Grupo_1119505" data-name="Grupo 1119505">
                  <g id="Grupo_1119504" data-name="Grupo 1119504" clip-path="url(#clip-path-12)">
                    <path id="Trazado_925144" data-name="Trazado 925144" d="M424.508,375.112c-1.9,8.426-3.16,12.689-7.584,13.161-3.019.331-8.527-4.343-11.716-7.342-1.084-2.026-2.026-3.782-2.628-4.9-2.448-4.474-4.474-16.471.431-14.916,4.383,1.394,13.592,11.586,21.015,3.611a20.788,20.788,0,0,1,.481,10.382" transform="translate(-400.007 -360.98)" fill="#ce1b92"/>
                  </g>
                </g>
              </g>
              <path id="Trazado_925145" data-name="Trazado 925145" d="M389.5,395.795c-4.344,2.378-28.017,2.989-29.281,2.989s-1.735-.481-3.04-2.688,1.615-3,1.515-6.159a9.794,9.794,0,0,0-.291-1.966c-.722-2.979-2.678-7.122-4.955-14.766,0,0-5.386-12.95-5.366-14.966s3.761-2.568,4.935-2.929,13.753-5.547,17.3-5.136c3.2.371,13.963,20.564,16.521,25.71.28.561.471.953.531,1.1.632,1.585,6.791,11.847,6.952,12.318s-.481,4.1-4.825,6.49" transform="translate(-174.877 -130.074)" fill="#c15348"/>
              <path id="Trazado_925146" data-name="Trazado 925146" d="M394.681,410.88c-4.344,2.378-28.017,2.989-29.281,2.989s-1.735-.481-3.04-2.688,1.615-3,1.515-6.159a9.791,9.791,0,0,0-.291-1.966c6.049-2.508,22.811-5.617,23.433-11.726v-.572l5.006.211c.28.561.471.953.531,1.1.632,1.585,6.791,11.847,6.952,12.318s-.481,4.1-4.825,6.49" transform="translate(-180.058 -145.158)" fill="#ad3f3a"/>
              <path id="Trazado_925147" data-name="Trazado 925147" d="M409.679,408.159c0,.24-.006.485-.019.732-.255,4.6-2.856,10.415-2.2,12.048a21.094,21.094,0,0,1,1.058,5.51c.146,1.55-3.3,2.927-4.5,3.1s-4.046.689-4-.86-.646.172-1.679-.861,0-4.133,0-4.133,2.067-.344,3.1-3.271,2.345-13.6,2.345-13.6" transform="translate(-193.374 -151.125)" fill="#f7bfc5"/>
              <path id="Trazado_925148" data-name="Trazado 925148" d="M378.929,348.425c8.061-.918,10.816.975,14.088,4.936s9.3,15.152,11.02,18.768a18.45,18.45,0,0,1,1.894,8.092c0,1.55,1.378,2.411,1.033,3.272s-.517,3.1-3.444,2.927-7.921.009-7.921.009.689-5.52-.516-7.758a94.019,94.019,0,0,0-5.855-9.47c-1.722-2.239-10.3-20.777-10.3-20.777" transform="translate(-186.336 -129.348)" fill="#c15348"/>
              <path id="Trazado_925149" data-name="Trazado 925149" d="M363.654,354.8c4.669,6.74,12.152,5.653,10.068-3.514s-10.068,3.514-10.068,3.514" transform="translate(-180.662 -129.259)" fill="#f7bfc5"/>
              <g id="Grupo_1119509" data-name="Grupo 1119509" transform="translate(182.992 218.698)" opacity="0.16" style="mix-blend-mode: multiply;isolation: isolate">
                <g id="Grupo_1119508" data-name="Grupo 1119508">
                  <g id="Grupo_1119507" data-name="Grupo 1119507" clip-path="url(#clip-path-13)">
                    <path id="Trazado_925150" data-name="Trazado 925150" d="M363.654,354.8c4.669,6.74,12.152,5.653,10.068-3.514s-10.068,3.514-10.068,3.514" transform="translate(-363.654 -347.957)" fill="#ce1b92"/>
                  </g>
                </g>
              </g>
              <path id="Trazado_925151" data-name="Trazado 925151" d="M350,341.863c-4.374-.52-6.272-4.587-6.136-6.349s-.784-4.338,1.438-7.863,3.713-7.863,9.543-7.863,8.611-1.248,11.558,1,3.9,3.742,3.489,6.589,1.263,2.847.09,4.88-.341,5.462-2.3,6.516c-.85.456-3.716,1.265-4.408,1.851-.906.767,1.064-1.454,1.064-1.454Z" transform="translate(-173.283 -118.667)" fill="#301011"/>
              <path id="Trazado_925152" data-name="Trazado 925152" d="M350.815,344.019c2.982,5.422,4.473,7.185,7.32,7.863a7.925,7.925,0,0,0,8.811-3.931c1.9-3.66,2.711-7.185,1.491-9.354s-11.794-5.016-11.794-5.016l-5.829,3.39Z" transform="translate(-175.893 -123.919)" fill="#f7bfc5"/>
              <path id="Trazado_925153" data-name="Trazado 925153" d="M346.525,339.65c2.347,4.928,5.965,4.88,8,4.609s2.034-2.655,3.118-2.276,2.169.446,4.2-.672,2.576-.576,3.389-1.661,1.762.136,1.492-2.576a6.722,6.722,0,0,0-4.474-5.965,53.754,53.754,0,0,0-8.134-1.627,18.737,18.737,0,0,0-4.473,2.576c-1.22,1.22-4.474,4.745-3.118,7.591" transform="translate(-174.178 -122.396)" fill="#301011"/>
              <path id="Trazado_925154" data-name="Trazado 925154" d="M343.791,361.228a9.979,9.979,0,0,1,3.439-7.6l4.288,2.437-1.58,8.8Z" transform="translate(-173.283 -131.364)" fill="#f7bfc5"/>
              <path id="Trazado_925155" data-name="Trazado 925155" d="M342.907,361.2c-1.432,6.789-1.906,15.631-1.116,20.526s0,6.789,3.474,7.263,6.948.473,7.105-4.579-1.579-16.262-1.579-16.262a11.324,11.324,0,0,0,1.589-2.527c-.01-.474-9.473-4.421-9.473-4.421" transform="translate(-172.399 -134.179)" fill="#c15348"/>
              <path id="Trazado_925156" data-name="Trazado 925156" d="M355.241,382.427c.473-6.156-1.519-13.406-1.519-13.406l1.589-2.527-6.011-2.944" transform="translate(-175.33 -135.052)" fill="none" stroke="#d35f59" stroke-linecap="round" stroke-miterlimit="10" stroke-width="0.75"/>
              <line id="Línea_3395" data-name="Línea 3395" x1="5.002" transform="translate(214.463 251.469)" fill="none" stroke="#d35f59" stroke-linecap="round" stroke-miterlimit="10" stroke-width="0.75"/>
              <path id="Trazado_925157" data-name="Trazado 925157" d="M390.364,372.5c1.892,5.814,5.992,10.049,7.878,13.254a10.674,10.674,0,0,1,1.78,5.351l-.175,4.355" transform="translate(-190.584 -138.375)" fill="none" stroke="#d35f59" stroke-linecap="round" stroke-miterlimit="10" stroke-width="0.75"/>
              <path id="Trazado_925158" data-name="Trazado 925158" d="M453.146,415.167c.564,3.531,1.774,4.821,3.145,4.982s1.29.806,1.29.806a6.145,6.145,0,0,1-.887,2.47,7.467,7.467,0,0,0-1.935,4.142c-.161,1.936-.161,3.69-.161,4.95s-.08,3.356-.08,3.356h3.71s8.547.645,9.6,0a15.971,15.971,0,0,0,2.742-2.177c.242-.322.08-3.387-1.371-6.048s-1.613-4.6-2.9-5.806-4.838-.887-4.838-.887-1.8-.126-1.528-1.821,2.735-2.17,1.977-4.2-.554-3.824-2.452-4.082-4.339-.393-5.221.895a4.717,4.717,0,0,0-1.082,3.119" transform="translate(-213.901 -152.559)" fill="#703232"/>
              <path id="Trazado_925159" data-name="Trazado 925159" d="M512.549,428.281c-.165,1.6.209,2.3.785,2.525s.466.5.466.5a2.75,2.75,0,0,1-.672.967,3.358,3.358,0,0,0-1.32,1.571c-.295.82-.5,1.581-.645,2.128s-.425,1.446-.425,1.446l1.608.431s3.631,1.272,4.16,1.114a7.143,7.143,0,0,0,1.442-.625,4.67,4.67,0,0,0,.108-2.781c-.321-1.322-.165-2.18-.584-2.854s-1.995-.947-1.995-.947a.705.705,0,0,1-.451-.967c.314-.7,1.438-.623,1.346-1.593s.2-1.722-.589-2.055-1.836-.674-2.368-.218a2.12,2.12,0,0,0-.832,1.227" transform="translate(-235.301 -158.511)" fill="#703232"/>
              <path id="Trazado_925160" data-name="Trazado 925160" d="M537.575,445.723c-.138,1.33.174,1.913.654,2.1s.388.416.388.416a2.3,2.3,0,0,1-.559.806,2.786,2.786,0,0,0-1.1,1.309c-.246.684-.415,1.317-.537,1.772s-.354,1.2-.354,1.2l1.34.359a17.7,17.7,0,0,0,3.466.928,5.943,5.943,0,0,0,1.2-.521c.586-.459.2-3.285.039-3.882a2.3,2.3,0,0,0-1.3-1.586l1.265-.194c.133-.26-.1-.544-.26-.792a5.472,5.472,0,0,1-.444-1.461c-.277-.974-2.052-2.476-3.078-1.6a1.77,1.77,0,0,0-.692,1.022" transform="translate(-244.71 -165.058)" fill="#703232"/>
              <path id="Trazado_925161" data-name="Trazado 925161" d="M490.062,423.2a4.309,4.309,0,0,0,.842,2.588c.52.525,1.686.745.862,1.785a2.442,2.442,0,0,1-.6.45,3.751,3.751,0,0,0-1.419,3.163c-.009,1.255-.185,2.547-.1,3.817.018.258.077.564.316.664a.9.9,0,0,0,.362.033c.765-.013,1.48.424,2.244.434a4.089,4.089,0,0,0,.912-.127c1.536-.334,2.7-.185,3.933-1.383a2.3,2.3,0,0,0,.626-.92,2.986,2.986,0,0,0-.039-1.469l-.718-3.673a1.159,1.159,0,0,0-.308-.693,1.441,1.441,0,0,0-.649-.226,9.638,9.638,0,0,1-1.737-.725c-.5-.219-.85-.519-.712-1.121.226-.984,1.691-1.165,1.327-2.389s-.173-2.266-1.278-2.493-2.531-.4-3.1.318a2.778,2.778,0,0,0-.759,1.787" transform="translate(-227.458 -156.286)" fill="#703232"/>
              <path id="Trazado_925162" data-name="Trazado 925162" d="M491.545,421.069c.922-1.087,2.161-.832,3.342-.517s2.066.669,2.183,1.614a7.878,7.878,0,0,0,.532,2.15c.236.566-.177.743-.827.861s.708.413-.236.826-1.15,1.181-1.933.591-1.609-.708-1.9-1.535a6.266,6.266,0,0,1-.236-2.007Z" transform="translate(-228.171 -156.126)" fill="#703232"/>
              <path id="Trazado_925163" data-name="Trazado 925163" d="M530.524,446.579a1.825,1.825,0,0,0,.356,1.1c.221.223.715.316.365.757a1.03,1.03,0,0,1-.253.19,1.589,1.589,0,0,0-.6,1.34c0,.532-.079,1.079-.041,1.617.007.109.033.239.134.282a.381.381,0,0,0,.153.013c.324-.005.627.18.951.184a1.712,1.712,0,0,0,.386-.054c.651-.141,1.145-.078,1.667-.586a.985.985,0,0,0,.265-.39,1.266,1.266,0,0,0-.017-.622q-.152-.779-.3-1.556a.488.488,0,0,0-.13-.294.608.608,0,0,0-.275-.1,4.079,4.079,0,0,1-.736-.307c-.21-.093-.36-.22-.3-.475.1-.417.717-.493.563-1.012s-.074-.96-.541-1.056-1.073-.171-1.314.134a1.178,1.178,0,0,0-.321.758" transform="translate(-242.583 -165.504)" fill="#703232"/>
              <path id="Trazado_925164" data-name="Trazado 925164" d="M531.152,445.677c.391-.46.916-.353,1.416-.219s.875.283.925.684a3.363,3.363,0,0,0,.225.911c.1.239-.075.314-.35.365s.3.175-.1.35-.487.5-.819.25-.682-.3-.806-.651a2.652,2.652,0,0,1-.1-.85Z" transform="translate(-242.884 -165.436)" fill="#703232"/>
              <path id="Trazado_925165" data-name="Trazado 925165" d="M563.758,459.514a1.825,1.825,0,0,0,.356,1.1c.221.223.715.316.365.757a1.02,1.02,0,0,1-.253.19,1.589,1.589,0,0,0-.6,1.34c0,.532-.079,1.079-.042,1.617.008.109.033.239.134.282a.381.381,0,0,0,.153.013c.324,0,.627.18.951.184a1.711,1.711,0,0,0,.386-.054c.651-.141,1.146-.078,1.667-.586a.979.979,0,0,0,.265-.39,1.258,1.258,0,0,0-.017-.622q-.152-.779-.3-1.556a.488.488,0,0,0-.13-.294.609.609,0,0,0-.275-.1,4.053,4.053,0,0,1-.735-.307c-.211-.093-.36-.22-.3-.475.1-.417.716-.493.563-1.012s-.073-.96-.541-1.056-1.073-.171-1.314.135a1.178,1.178,0,0,0-.321.757" transform="translate(-254.929 -170.31)" fill="#703232"/>
              <path id="Trazado_925166" data-name="Trazado 925166" d="M564.386,458.612c.391-.461.916-.353,1.416-.219s.875.283.925.684a3.362,3.362,0,0,0,.225.911c.1.239-.075.314-.35.365s.3.175-.1.35-.487.5-.819.25-.681-.3-.806-.651a2.656,2.656,0,0,1-.1-.85Z" transform="translate(-255.23 -170.241)" fill="#703232"/>
              <path id="Trazado_925167" data-name="Trazado 925167" d="M520.524,435.782c.505.84,2.187,2.32,2.459,3.574a14.281,14.281,0,0,1,.382,2.616c.055.872-.054,1.69-.926,1.581s-.981-.226-1.2-1.2a12.339,12.339,0,0,0-1.145-2.394,9.067,9.067,0,0,1-.382-2.386Z" transform="translate(-238.635 -161.884)" fill="#703232"/>
              <path id="Trazado_925168" data-name="Trazado 925168" d="M511.858,435.095c-.5.392-1.219,1.365-2.145,1.31,0,0,1.219-1.09,1.073-1.526a.764.764,0,0,0-1.317-.327c-.682.545-3.419,2.674-1.445,4.251s3.835-.68,3.835-.68l1.343-2.1Z" transform="translate(-234.031 -161.333)" fill="#703232"/>
              <path id="Trazado_925169" data-name="Trazado 925169" d="M512,434.082c.418-.662.5-1.013.886-.662s.74.623.584,1.013-.817.763-1.012.42a.979.979,0,0,1-.015-.771Z" transform="translate(-235.769 -160.955)" fill="#703232"/>
              <path id="Trazado_925170" data-name="Trazado 925170" d="M512.911,432.7a4.337,4.337,0,0,1,3.583-1.76c1.518.163,5.686-.581,6.192,1.466s.7,3.923-.35,4.465-2.181,1.554-3.778.619-3.017-.826-3.28-1.912-2.187-2.533-2.187-2.533" transform="translate(-236.108 -160.079)" fill="#703232"/>
              <path id="Trazado_925171" data-name="Trazado 925171" d="M550.273,455.005c-.1,1,.131,1.436.491,1.579s.291.312.291.312a1.718,1.718,0,0,1-.42.605,2.1,2.1,0,0,0-.825.982c-.184.513-.312.989-.4,1.331s-.265.9-.265.9l1.006.27a13.263,13.263,0,0,0,2.6.7,4.494,4.494,0,0,0,.9-.391,2.913,2.913,0,0,0,.067-1.739c-.2-.827-.1-1.363-.365-1.785s-1.247-.591-1.247-.591a.441.441,0,0,1-.282-.605c.2-.44.9-.39.842-1s.128-1.077-.368-1.285-1.148-.422-1.481-.136a1.326,1.326,0,0,0-.52.767" transform="translate(-249.567 -168.659)" fill="#703232"/>
              <path id="Trazado_925172" data-name="Trazado 925172" d="M555.26,459.7c.316.525,1.367,1.451,1.537,2.234a8.925,8.925,0,0,1,.239,1.636c.034.546-.034,1.057-.58.989s-.613-.141-.75-.752a7.686,7.686,0,0,0-.716-1.5,5.668,5.668,0,0,1-.238-1.492Z" transform="translate(-251.652 -170.768)" fill="#703232"/>
              <path id="Trazado_925173" data-name="Trazado 925173" d="M549.841,459.266c-.314.245-.762.854-1.341.82,0,0,.762-.682.671-.954a.478.478,0,0,0-.823-.2c-.427.341-2.138,1.673-.9,2.659s2.4-.426,2.4-.426l.84-1.313Z" transform="translate(-248.773 -170.423)" fill="#703232"/>
              <path id="Trazado_925174" data-name="Trazado 925174" d="M549.929,458.633c.261-.414.31-.633.554-.414s.463.39.365.634-.511.477-.633.263a.61.61,0,0,1-.009-.482Z" transform="translate(-249.86 -170.187)" fill="#703232"/>
              <path id="Trazado_925175" data-name="Trazado 925175" d="M550.5,457.768a2.711,2.711,0,0,1,2.241-1.1c.95.1,3.556-.363,3.872.917s.439,2.453-.219,2.792-1.364.972-2.363.387-1.887-.517-2.051-1.2-1.367-1.584-1.367-1.584" transform="translate(-250.072 -169.639)" fill="#703232"/>
              <rect id="Rectángulo_409211" data-name="Rectángulo 409211" width="6.131" height="3.008" transform="translate(263.995 245.712)" fill="#f9cbb2"/>
              <rect id="Rectángulo_409212" data-name="Rectángulo 409212" width="6.131" height="3.008" transform="translate(294.517 258.119)" fill="#f9cbb2"/>
              <rect id="Rectángulo_409213" data-name="Rectángulo 409213" width="6.131" height="3.007" transform="translate(268.793 251.916)" fill="#f9cbb2"/>
              <rect id="Rectángulo_409214" data-name="Rectángulo 409214" width="6.131" height="3.007" transform="translate(302.514 247.216)" fill="#f9cbb2"/>
              <rect id="Rectángulo_409215" data-name="Rectángulo 409215" width="6.131" height="3.008" transform="translate(276.103 261.127)" fill="#f9cbb2"/>
              <rect id="Rectángulo_409216" data-name="Rectángulo 409216" width="6.131" height="3.008" transform="translate(302.514 239.92)" fill="#f9cbb2"/>
              <path id="Trazado_925176" data-name="Trazado 925176" d="M62.956,309.3c13.453,1.922,74.542,22.2,79.581,26.351s17.729,21.98,19.525,22.319,56.816,5.775,60.778,6.421,24.623,20.139,30.869,26.008,20.261,10.333,26.642,9.47,23.143-1.94,29.721-1.653,28.131-8.45,31.536-5.855,17.327,8.711,21.171,11.594,9.609,2.405,9.609,2.405H393.53l2.882,26.9-10.09,11.532L54.308,436.624Z" transform="translate(-65.746 -114.897)" fill="#703232"/>
              <path id="Trazado_925177" data-name="Trazado 925177" d="M240.048,458.925a33.388,33.388,0,0,1-6.375-1.379c-8.016-3.138-11.315-14.618-19.855-15.7-5.768-.732-11.107,3.89-16.911,3.57-6.311-.348-10.95-6.305-17.093-7.793-5.475-1.326-11.3,1.093-16.82-.013-6.83-1.367-11.4-7.6-17.025-11.7-10.235-7.474-19.241-2.828-30.013-5.489a17.523,17.523,0,0,1-6.412-3.674c-6.459-5.113-14.421-11.044-22.1-8.066-2.116.82-3.97,2.282-6.163,2.864-5.4,1.436-10.472-2.7-15.27-5.569A38.187,38.187,0,0,0,24.7,408.038c-4.716,17.377-18.116,32.085-19.585,50.031a9.5,9.5,0,0,0,.674,5.2,10.528,10.528,0,0,0,4.137,3.716A211.492,211.492,0,0,0,107.982,497.5c23.833,1.317,47.676-1.424,71.507-2.78,15.07-.857,30.674-.678,45.407-4.038a135.338,135.338,0,0,1,44.28-2.865l-19.942-23.171a18.1,18.1,0,0,0-4.686-4.3,14.354,14.354,0,0,0-4.5-1.426" transform="translate(-47.443 -148.918)" fill="#632a2a"/>
              <path id="Trazado_925178" data-name="Trazado 925178" d="M17.248,432.428l39.137-7.047,30.542,27.67,30.4,11.461s18.323,13.672,21.762,13.672S161.645,497.4,161.645,497.4L0,478.184Z" transform="translate(-45.571 -158.02)" fill="#4c2222"/>
            </g>
          </g>
        </g>
      </g>
    </g>
  </g>
</svg>
